<?xml version="1.0" standalone="no"?>
<!DOCTYPE svg PUBLIC "-//W3C//DTD SVG 20010904//EN"
 "http://www.w3.org/TR/2001/REC-SVG-20010904/DTD/svg10.dtd">
<svg version="1.0" xmlns="http://www.w3.org/2000/svg"
 width="256.000000pt" height="256.000000pt" viewBox="0 0 256.000000 256.000000"
 preserveAspectRatio="xMidYMid meet">

<g transform="translate(0.000000,256.000000) scale(0.100000,-0.100000)"
fill="#000000" stroke="none">
<path d="M781 2468 c-22 -15 -61 -72 -115 -166 l-83 -144 -151 1 c-83 1 -169
-3 -191 -9 -51 -13 -73 -41 -167 -205 -87 -154 -91 -177 -37 -257 33 -49 66
-60 83 -29 9 17 6 29 -15 64 -14 24 -25 51 -25 60 0 16 131 248 158 280 13 15
35 17 171 17 86 0 161 -4 167 -8 12 -7 174 -280 173 -291 0 -3 -37 -69 -82
-146 l-83 -140 -171 -3 -172 -2 -26 45 c-20 33 -33 45 -51 45 -39 0 -46 -30
-18 -79 13 -24 24 -47 24 -51 0 -4 -38 -74 -85 -156 -57 -99 -85 -158 -85
-179 0 -21 29 -82 88 -185 112 -197 100 -190 327 -190 l170 -1 80 -140 c44
-77 90 -150 103 -162 22 -21 36 -22 209 -27 l185 -5 87 -149 c114 -195 101
-188 331 -184 148 3 179 6 201 21 15 10 63 82 110 166 l84 149 186 4 c210 3
206 2 254 85 27 45 27 76 0 87 -24 9 -39 -2 -67 -49 l-28 -45 -169 0 c-123 0
-171 3 -179 13 -26 31 -152 261 -152 277 0 16 126 246 152 278 8 9 53 12 182
10 l170 -3 80 -138 c75 -130 79 -140 68 -168 -7 -16 -17 -42 -24 -59 -10 -25
-10 -32 4 -46 24 -24 50 -10 81 45 42 76 38 96 -54 255 -118 206 -93 190 -317
194 l-187 3 -62 112 c-35 62 -73 128 -84 148 l-22 37 83 143 c45 79 84 160 87
180 4 29 -2 50 -27 97 -35 65 -51 78 -81 62 -25 -14 -24 -37 6 -85 13 -22 24
-49 24 -60 0 -11 -34 -81 -77 -155 l-78 -135 -174 0 -174 0 -78 135 c-43 74
-78 143 -78 153 0 19 105 209 147 265 l24 32 160 0 159 0 28 -40 c32 -46 58
-58 79 -37 35 34 -29 129 -99 147 -22 6 -107 10 -190 9 l-150 -2 -83 144
c-113 196 -102 189 -325 189 -167 0 -179 -1 -209 -22z m461 -198 c43 -74 78
-143 78 -153 0 -19 -105 -209 -147 -264 l-24 -33 -158 0 c-138 0 -160 2 -174
18 -25 28 -157 262 -157 280 0 15 7 29 107 200 l54 92 172 -2 171 -3 78 -135z
m-1 -665 c43 -71 78 -140 78 -153 1 -27 -130 -258 -161 -284 -17 -15 -42 -18
-168 -18 -126 0 -151 3 -168 18 -25 22 -162 258 -162 280 0 14 126 244 153
280 7 9 51 12 181 10 l170 -3 77 -130z m-659 -207 c22 -19 158 -262 158 -284
0 -22 -136 -263 -158 -281 -17 -14 -318 -19 -338 -5 -16 11 -164 268 -164 285
0 17 133 252 157 280 14 15 36 17 173 17 110 0 161 -4 172 -12z m1155 4 c17
-11 163 -269 163 -288 0 -18 -134 -257 -158 -280 -20 -20 -324 -20 -344 0 -24
23 -158 262 -158 280 0 19 146 277 163 288 7 4 82 8 167 8 85 0 160 -4 167 -8z
m-495 -467 c42 -71 77 -141 77 -155 0 -14 -35 -83 -77 -155 l-77 -130 -175 0
-175 0 -77 135 c-43 74 -78 141 -78 149 0 14 83 167 137 254 l24 37 172 -2
172 -3 77 -130z m500 -209 c24 -24 158 -262 158 -281 0 -20 -146 -276 -164
-287 -14 -10 -318 -10 -332 0 -18 11 -164 267 -164 287 0 19 134 257 158 281
20 20 324 20 344 0z"/>
</g>
</svg>
